<?xml version="1.0" encoding="utf-8" ?>
<svg xmlns="http://www.w3.org/2000/svg" xmlns:xlink="http://www.w3.org/1999/xlink" width="86" height="73">
	<defs>
		<clipPath id="clip_0">
			<rect x="-898" y="-871" width="1440" height="1700" clip-rule="evenodd"/>
		</clipPath>
	</defs>
	<g clip-path="url(#clip_0)">
		<path fill="rgb(245,244,244)" stroke="none" d="M4 0L82 0Q82.205 0 82.4069 0.0186425Q82.6087 0.037285 82.8058 0.0744179Q83.0028 0.111551 83.1934 0.166871Q83.384 0.222192 83.5667 0.295249Q83.7493 0.368306 83.9225 0.458503Q84.0957 0.5487 84.258 0.655303Q84.4203 0.761905 84.5704 0.884043Q84.7205 1.00618 84.8571 1.14286Q84.9938 1.27953 85.116 1.42964Q85.2381 1.57974 85.3447 1.74204Q85.4513 1.90434 85.5415 2.07752Q85.6317 2.2507 85.7048 2.43334Q85.7778 2.61598 85.8331 2.8066Q85.8885 2.99721 85.9256 3.19425Q85.9627 3.39129 85.9814 3.59314Q86 3.79499 86 4L86 69Q86 69.205 85.9814 69.4069Q85.9627 69.6087 85.9256 69.8058Q85.8885 70.0028 85.8331 70.1934Q85.7778 70.384 85.7048 70.5667Q85.6317 70.7493 85.5415 70.9225Q85.4513 71.0957 85.3447 71.258Q85.2381 71.4203 85.116 71.5704Q84.9938 71.7205 84.8571 71.8571Q84.7205 71.9938 84.5704 72.116Q84.4203 72.2381 84.258 72.3447Q84.0957 72.4513 83.9225 72.5415Q83.7493 72.6317 83.5667 72.7048Q83.384 72.7778 83.1934 72.8331Q83.0028 72.8885 82.8058 72.9256Q82.6087 72.9627 82.4069 72.9814Q82.205 73 82 73L4 73Q3.79499 73 3.59314 72.9814Q3.39129 72.9627 3.19425 72.9256Q2.99721 72.8885 2.8066 72.8331Q2.61598 72.7778 2.43334 72.7048Q2.2507 72.6317 2.07752 72.5415Q1.90434 72.4513 1.74204 72.3447Q1.57974 72.2381 1.42964 72.116Q1.27953 71.9938 1.14286 71.8571Q1.00618 71.7205 0.884043 71.5704Q0.761905 71.4203 0.655303 71.258Q0.5487 71.0957 0.458503 70.9225Q0.368306 70.7493 0.295249 70.5667Q0.222192 70.384 0.166871 70.1934Q0.111551 70.0028 0.0744179 69.8058Q0.037285 69.6087 0.0186425 69.4069Q0 69.205 0 69L0 4Q0 3.79499 0.0186425 3.59314Q0.037285 3.39129 0.0744179 3.19425Q0.111551 2.99721 0.166871 2.8066Q0.222192 2.61598 0.295249 2.43334Q0.368306 2.2507 0.458503 2.07752Q0.5487 1.90434 0.655303 1.74204Q0.761905 1.57974 0.884043 1.42964Q1.00618 1.27953 1.14286 1.14286Q1.27953 1.00618 1.42964 0.884043Q1.57974 0.761905 1.74204 0.655303Q1.90434 0.5487 2.07752 0.458503Q2.2507 0.368306 2.43334 0.295249Q2.61598 0.222192 2.8066 0.166871Q2.99721 0.111551 3.19425 0.0744179Q3.39129 0.037285 3.59314 0.0186425Q3.79499 0 4 0Z"/>
	</g>
	<defs>
		<clipPath id="clip_1">
			<rect x="-898" y="-871" width="1440" height="1700" clip-rule="evenodd"/>
		</clipPath>
	</defs>
	<g clip-path="url(#clip_1)">
		<text fill="rgb(156,160,161)" stroke="none" transform="translate(16.1914 29)" font-size="14" font-family="SimSun, 宋体" x="0" y="12.785156">
				添加照片
		</text>
	</g>

</svg>