<svg height="512pt" viewBox="0 0 512.0056 512" width="512pt" xmlns="http://www.w3.org/2000/svg"><path d="m8.539062 512.003906c-2.269531 0-4.488281-.90625-6.128906-2.59375-2.285156-2.347656-3.019531-5.804687-1.882812-8.882812l39.355468-107.351563c-26.105468-41.019531-39.87890575-88.363281-39.87890575-137.171875 0-141.160156 114.84374975-255.99999975 255.99999975-255.99999975 141.160156 0 256 114.83984375 256 255.99999975 0 141.15625-114.839844 256-256 256-47.214844 0-93.25-12.980468-133.417968-37.554687l-111.351563 37.117187c-.878906.292969-1.789063.4375-2.695313.4375zm115.15625-55.449218c1.605469 0 3.191407.449218 4.566407 1.320312 38.238281 24.253906 82.40625 37.0625 127.742187 37.0625 131.746094 0 238.933594-107.1875 238.933594-238.933594s-107.1875-238.933594-238.933594-238.933594-238.929687 107.1875-238.929687 238.933594c0 46.90625 13.625 92.355469 39.414062 131.421875 1.492188 2.261719 1.816407 5.09375.886719 7.636719l-34.730469 94.710938 98.347657-32.777344c.886718-.296875 1.792968-.441406 2.703124-.441406zm0 0"/><path d="m469.339844 264.535156c-4.710938 0-8.535156-3.820312-8.535156-8.53125 0-46.414062-17.484376-92.972656-49.21875-131.074218-3.019532-3.617188-2.527344-9 1.089843-12.023438 3.621094-3.011719 9.003907-2.523438 12.015625 1.09375 34.296875 41.171875 53.179688 91.605469 53.179688 142.003906 0 4.710938-3.820313 8.53125-8.53125 8.53125zm0 0"/><path d="m392.539062 102.402344c-1.9375 0-3.882812-.65625-5.480468-1.996094-14.488282-12.160156-27.84375-21.53125-40.8125-28.65625-4.128906-2.269531-5.640625-7.457031-3.378906-11.578125 2.261718-4.121094 7.449218-5.648437 11.585937-3.378906 13.96875 7.660156 28.222656 17.65625 43.582031 30.539062 3.609375 3.03125 4.078125 8.414063 1.050782 12.023438-1.699219 2.007812-4.113282 3.046875-6.546876 3.046875zm0 0"/><path d="m315.738281 59.734375c-.886719 0-1.78125-.144531-2.679687-.433594-20.25-6.679687-37.460938-8.074219-57.070313-8.105469-4.710937-.007812-8.53125-3.832031-8.523437-8.542968.015625-4.703125 3.839844-8.515625 8.539062-8.515625h.011719c25.144531.035156 43.21875 2.636719 62.394531 8.960937 4.472656 1.476563 6.902344 6.304688 5.425782 10.777344-1.175782 3.589844-4.511719 5.859375-8.097657 5.859375zm0 0"/><path d="m298.664062 349.871094c-1.289062 0-2.585937-.292969-3.816406-.898438l-98.574218-49.296875-98.585938 49.289063c-3.5 1.757812-7.742188.886718-10.292969-2.074219-2.550781-2.96875-2.753906-7.285156-.492187-10.488281l102.398437-145.066406c2.5-3.539063 7.253907-4.648438 11.058594-2.566407l89.644531 48.894531 98.242188-57.308593c3.371094-1.980469 7.65625-1.390625 10.394531 1.398437 2.738281 2.789063 3.226563 7.082032 1.1875 10.417969l-93.867187 153.601563c-1.605469 2.628906-4.40625 4.097656-7.296876 4.097656zm-102.390624-68.269532c1.304687 0 2.609374.300782 3.8125.898438l95.386718 47.691406 72.140625-118.042968-73.171875 42.683593c-2.578125 1.519531-5.761718 1.5625-8.390625.121094l-87.191406-47.554687-78.441406 111.109374 72.03125-36.015624c1.210937-.589844 2.515625-.890626 3.824219-.890626zm0 0"/></svg>