<?xml version="1.0" encoding="utf-8" ?>
<svg xmlns="http://www.w3.org/2000/svg" xmlns:xlink="http://www.w3.org/1999/xlink" width="24" height="29">
	<defs>
		<clipPath id="clip_0">
			<rect x="-314" y="-699" width="360" height="740" clip-rule="evenodd"/>
		</clipPath>
	</defs>
	<g clip-path="url(#clip_0)">
		<path fill="rgb(51,51,51)" stroke="none" d="M11.9971 16L11.9051 16C10.219 15.9693 8.85523 15.3359 7.85397 14.1245C5.63853 11.4558 6.00681 6.88086 6.04709 6.44427C6.19095 3.1422 7.66407 1.57417 8.87249 0.842429C10.0752 0.110684 11.3296 0 11.9684 0L12.0662 0C13.2286 0.0245965 14.2701 0.319754 15.162 0.867025C16.3589 1.59877 17.809 3.16679 17.9529 6.44427C17.9932 6.88086 18.3615 11.4558 16.146 14.1245C15.139 15.3359 13.7752 15.9693 12.0892 16L11.9971 16ZM23.9925 23.0654C23.9925 23.1177 23.9984 23.1642 23.9984 23.2282C24.0042 23.5304 24.0101 25.0824 23.7179 25.8554C23.6595 26.0066 23.5485 26.1344 23.4141 26.2216C23.2388 26.3321 19.0377 29 12.0087 29C4.97974 29 0.778695 26.3379 0.603409 26.2216C0.463179 26.1344 0.358007 26.0066 0.299578 25.8554C-0.0100956 25.0766 -0.00425266 23.5246 0.00159023 23.2049C0.00743313 23.1584 0.00743313 23.1119 0.00743313 23.0596C0.0424905 21.9146 0.118448 19.2234 2.71269 18.3399C5.35953 17.6714 7.53893 16.1602 7.5623 16.1427C7.91871 15.8928 9.2789 15.98 9.53014 16.3346C9.78139 16.6891 13.9829 16.6891 14.2341 16.3346C14.4854 15.98 16.0812 15.8986 16.4377 16.1486C16.461 16.166 18.6521 17.6772 21.3457 18.3631C23.8815 19.2234 23.9575 21.9146 23.9925 23.0654Z" fill-rule="evenodd"/>
	</g>

</svg>