<?xml version="1.0" encoding="utf-8" ?>
<svg xmlns="http://www.w3.org/2000/svg" xmlns:xlink="http://www.w3.org/1999/xlink" width="20" height="24">
	<path fill="rgb(51,51,51)" stroke="none" d="M9.92088 13L10.0743 13C11.4794 12.975 12.6158 12.4604 13.455 11.4762C15.3012 9.30784 14.9943 5.5907 14.9608 5.23597C14.8409 2.57302 13.6325 1.299 12.635 0.704458C11.8918 0.2598 11.0238 0.0199846 10.0551 0L9.97363 0C9.44135 0 8.39597 0.0899308 7.39374 0.684474C6.38673 1.27902 5.15913 2.55304 5.03924 5.23597C5.00568 5.5907 4.69878 9.30784 6.54497 11.4762C7.37936 12.4604 8.51585 12.975 9.92088 13ZM6.31959 5.36088C6.31959 5.34589 6.32439 5.3309 6.32439 5.32091C6.48263 1.73866 8.92345 1.35396 9.96883 1.35396L10.0264 1.35396C11.3211 1.38394 13.5222 1.93351 13.6708 5.32091C13.6708 5.3359 13.6708 5.35088 13.6756 5.36088C13.6804 5.39585 14.0161 8.79324 12.4912 10.5819C11.887 11.2913 11.0813 11.641 10.0216 11.651L9.97363 11.651C8.91866 11.641 8.10825 11.2913 7.50883 10.5819C5.98872 8.80323 6.3148 5.39085 6.31959 5.36088ZM19.9986 19.1014L19.9986 19.1162C20.0035 19.3719 20.0084 20.6851 19.7649 21.3392C19.7162 21.4671 19.6237 21.5753 19.5117 21.6491C19.3657 21.7425 15.8648 24 10.0073 24C4.14978 24 0.648913 21.7474 0.50284 21.6491C0.385983 21.5753 0.298339 21.4671 0.249648 21.3392C-0.00841296 20.6802 -0.00354388 19.367 0.0013252 19.1112L0.0013252 19.0965C0.00619428 19.0571 0.00619428 19.0178 0.00619428 18.9735C0.0354088 18.0046 0.0987068 15.7275 2.21189 14.9946C2.22649 14.9897 2.2411 14.9848 2.26058 14.9799C4.46627 14.4143 6.28244 13.1355 6.30191 13.1208C6.59893 12.9093 7.00793 12.9831 7.2173 13.2831C7.42667 13.5831 7.35364 13.9962 7.05662 14.2077C6.97385 14.2618 5.03595 15.6291 2.61115 16.2586C1.47666 16.6669 1.35006 17.8915 1.31598 19.0129C1.31598 19.0571 1.31111 19.0965 1.31111 19.1358C1.30137 19.5785 1.33545 20.2621 1.41336 20.6556C2.20702 21.1081 5.31836 22.677 10.0024 22.677C14.7059 22.677 17.7978 21.113 18.5866 20.6605C18.6645 20.267 18.6937 19.5834 18.6889 19.1407C18.684 19.1014 18.684 19.0621 18.684 19.0178C18.6499 17.8964 18.5233 16.6718 17.3888 16.2636C14.964 15.634 13.0261 14.2717 12.9433 14.2126C12.6463 14.0012 12.5733 13.588 12.7827 13.288C12.992 12.988 13.401 12.9142 13.698 13.1257C13.7175 13.1405 15.5434 14.4192 17.7394 14.9848C17.754 14.9897 17.7735 14.9946 17.7881 14.9996C19.9013 15.7275 19.9646 18.0046 19.9938 18.9784C19.9938 19.0227 19.9986 19.0621 19.9986 19.1014Z" fill-rule="evenodd"/>

</svg>