<?xml version="1.0" encoding="utf-8" ?>
<svg xmlns="http://www.w3.org/2000/svg" xmlns:xlink="http://www.w3.org/1999/xlink" width="21" height="24">
	<path fill="rgb(0,0,0)" stroke="none" d="M21 2.58958C21 1.18675 19.8497 0.0350285 18.4286 0.0042203L2.61 0C1.17086 0 0 1.15256 0 2.57016L0 24L8.14286 18.6546L16.2857 24L16.2857 10.5507L21 10.5507L21 2.58958ZM15.1704 21.789L8.11852 17.0922L1.06668 21.789L1.1055 2.73404C1.1055 1.79957 1.86668 1.03915 2.80209 1.03915L16.0828 1.03915C15.675 1.4378 15.3851 1.9558 15.2677 2.53555C15.2486 2.62879 15.2341 2.72244 15.2245 2.81734C15.2146 2.91389 15.2092 3.0121 15.2092 3.11115L15.2092 10.6761L15.1704 21.789ZM16.2857 9.70669L20.1429 9.70669L20.1429 2.74713C20.1429 1.81941 19.569 1.03915 18.3151 1.03915C17.0613 1.03915 16.4944 1.91433 16.3286 2.69431C16.3007 2.82678 16.2857 2.96338 16.2857 3.10369L16.2857 9.70669Z" fill-rule="evenodd"/>

</svg>