<?xml version="1.0" encoding="utf-8" ?>
<svg xmlns="http://www.w3.org/2000/svg" xmlns:xlink="http://www.w3.org/1999/xlink" width="22" height="23">
	<path fill="rgb(51,51,51)" stroke="none" d="M19.3143 15.1438L6.27003 15.1438C5.76889 15.1438 5.29694 15.0114 4.89798 14.7845L4.89798 16.5146C4.89798 17.2473 5.51102 17.8476 6.27003 17.8476L18.6769 17.8476C20.1365 17.8476 21.3286 19.0057 21.3286 20.4238C21.3286 21.8419 20.1365 23 18.6769 23C17.2173 23 16.0252 21.8466 16.0252 20.4238C16.0252 19.9511 16.1566 19.5068 16.3901 19.1239L10.4835 19.1239C10.717 19.502 10.8484 19.9511 10.8484 20.4238C10.8484 21.8419 9.65638 23 8.19675 23C6.73711 23 5.54508 21.8466 5.54508 20.4238C5.54508 19.9416 5.68618 19.4879 5.92459 19.1002C4.60605 18.9348 3.58431 17.8381 3.58431 16.5146L3.58431 2.53218L0.402311 1.22754C0.0665957 1.09045 -0.0890984 0.717024 0.0519994 0.390862C0.193097 0.0647005 0.577467 -0.0865628 0.913182 0.0505196L4.49901 1.51588C4.51847 1.52534 4.5428 1.53479 4.56226 1.54424C4.56713 1.54897 4.57199 1.54897 4.57686 1.5537C4.58659 1.55843 4.60119 1.56788 4.61578 1.57733C4.62551 1.58679 4.63524 1.59151 4.64497 1.60097C4.64984 1.6057 4.65957 1.61042 4.66444 1.61515C4.67903 1.6246 4.68876 1.63406 4.69849 1.64351L4.71309 1.65769L4.74228 1.68605L4.75688 1.70024C4.76175 1.70969 4.77148 1.71914 4.77634 1.7286C4.78121 1.73805 4.78607 1.74278 4.79094 1.75223C4.7958 1.76169 4.80067 1.76641 4.80553 1.77587C4.81527 1.78532 4.82013 1.79477 4.825 1.80423C4.82986 1.80896 4.82986 1.81841 4.83473 1.82314C4.84446 1.83732 4.84932 1.84677 4.85419 1.86095C4.85419 1.86568 4.85905 1.87513 4.85905 1.87986L4.87365 1.9224C4.87365 1.93186 4.87852 1.93658 4.87852 1.94604C4.88338 1.96022 4.88338 1.96967 4.88825 1.98385C4.88825 1.99803 4.89311 2.01222 4.89311 2.0264C4.89798 2.03585 4.89798 2.04058 4.89798 2.0453C4.90284 2.06421 4.90284 2.08785 4.90284 2.11148L4.90284 4.35207L21.4356 6.56902C21.4453 6.56902 21.4502 6.57375 21.4551 6.57375C21.4697 6.57375 21.4794 6.57375 21.494 6.57848C21.4989 6.57848 21.5086 6.5832 21.5183 6.5832C21.5281 6.5832 21.5426 6.58793 21.5524 6.59266C21.5621 6.59738 21.5718 6.59738 21.5816 6.60211L21.6108 6.61629L21.64 6.63047L21.6692 6.64465C21.6789 6.65411 21.6886 6.65883 21.6983 6.66356C21.7081 6.66829 21.7129 6.67302 21.7227 6.67774C21.7324 6.68247 21.7421 6.69192 21.7519 6.69665C21.7616 6.70138 21.7665 6.71083 21.7762 6.71556L21.8005 6.73919C21.8054 6.74392 21.8151 6.74865 21.82 6.7581C21.8248 6.76756 21.8346 6.77228 21.8394 6.78174C21.8443 6.79119 21.854 6.79592 21.8589 6.80537C21.8686 6.81483 21.8735 6.81955 21.8784 6.82901C21.8832 6.83846 21.893 6.84791 21.8978 6.85737C21.9027 6.86682 21.9076 6.87155 21.9124 6.881L21.927 6.90937C21.9319 6.91409 21.9367 6.92355 21.9416 6.933C21.9465 6.94718 21.9513 6.95663 21.9562 6.96609C21.9611 6.97554 21.9611 6.985 21.9659 6.99445C21.9708 7.0039 21.9708 7.01336 21.9757 7.02281C21.9805 7.03699 21.9805 7.04645 21.9854 7.0559C21.9854 7.06536 21.9903 7.07481 21.9903 7.08426C21.9903 7.09372 21.9951 7.1079 21.9951 7.11735C22 7.12681 22 7.13626 22 7.14571L22 12.5345C22 13.9715 20.7934 15.1438 19.3143 15.1438ZM6.27003 13.8675L19.3143 13.8675C20.0684 13.8675 20.6863 13.2719 20.6863 12.5297L20.6863 7.75077L4.89798 5.63781L4.89798 12.5345C4.89798 13.2672 5.51102 13.8675 6.27003 13.8675ZM8.20161 21.719C8.93629 21.719 9.53961 21.1376 9.53961 20.4191C9.53961 19.7006 8.93629 19.1192 8.20161 19.1192C7.46693 19.1192 6.86362 19.7053 6.86362 20.4191C6.86362 21.1328 7.46693 21.719 8.20161 21.719ZM20.0198 20.4191C20.0198 21.1376 19.4165 21.719 18.6818 21.719C17.9471 21.719 17.3438 21.1328 17.3438 20.4191C17.3438 19.7053 17.9471 19.1192 18.6818 19.1192C19.4165 19.1192 20.0198 19.7006 20.0198 20.4191Z" fill-rule="evenodd"/>

</svg>