<?xml version="1.0" encoding="utf-8" ?>
<svg xmlns="http://www.w3.org/2000/svg" xmlns:xlink="http://www.w3.org/1999/xlink" width="27" height="29">
	<defs>
		<clipPath id="clip_0">
			<rect x="-245" y="-698" width="360" height="740" clip-rule="evenodd"/>
		</clipPath>
	</defs>
	<g clip-path="url(#clip_0)">
		<path fill="rgb(51,51,51)" stroke="none" d="M7.69504 19.0943L23.7039 19.0943C25.5191 19.0943 27 17.6162 27 15.8043L27 9.08134C27 8.99789 27 8.98597 26.994 8.97405C26.9761 8.88465 26.9761 8.87273 26.9701 8.85485C26.9403 8.77141 26.9343 8.75949 26.9283 8.74161C26.8865 8.66413 26.8806 8.65817 26.8746 8.64625C26.8209 8.56877 26.8089 8.56281 26.8029 8.55089C26.7432 8.48532 26.7373 8.47936 26.7253 8.46744C26.6477 8.4138 26.6417 8.40784 26.6298 8.40188C26.582 8.37208 26.5701 8.36612 26.5581 8.36016C26.4745 8.31844 26.4626 8.31844 26.4506 8.31248C26.3611 8.28864 26.3491 8.28864 26.3312 8.28864C26.3253 8.28864 6.01713 5.48739 6.01713 5.48739L6.01713 2.6623C6.01115 2.5729 6.01115 2.56694 6.00518 2.55502C5.99324 2.4835 5.99324 2.47158 5.98727 2.4537C5.97533 2.40602 5.96936 2.38814 5.96338 2.37026C5.92756 2.29278 5.92756 2.28086 5.92159 2.2749C5.87382 2.19742 5.86785 2.19146 5.86187 2.17954C5.80813 2.11397 5.79619 2.10205 5.78425 2.09013C5.71856 2.03053 5.70662 2.02457 5.70065 2.01861C5.64691 1.97689 5.629 1.96497 5.61705 1.95901C5.57526 1.93517 5.5454 1.92325 5.52151 1.91133L1.12072 0.0636986C0.708709 -0.109144 0.236983 0.0815789 0.0638174 0.492826C-0.109348 0.904073 0.0817311 1.37492 0.493745 1.54776L4.39892 3.19275L4.39892 6.84034L4.39892 7.41847L4.39892 11.8528L4.39892 15.8163L4.39892 20.8227C4.39892 22.4916 5.65288 23.8743 7.27108 24.0829C6.97849 24.5716 6.80533 25.1438 6.80533 25.7517C6.80533 27.5457 8.26828 29 10.0596 29C11.851 29 13.314 27.5398 13.314 25.7517C13.314 25.1557 13.1527 24.5895 12.8661 24.1127L20.1152 24.1127C19.8286 24.5955 19.6673 25.1557 19.6673 25.7517C19.6673 27.5457 21.1303 29 22.9217 29C24.713 29 26.176 27.5398 26.176 25.7517C26.176 23.9637 24.713 22.5035 22.9217 22.5035L7.69504 22.5035C6.76353 22.5035 6.01115 21.7466 6.01115 20.8227L6.01115 18.6413C6.50079 18.9274 7.08 19.0943 7.69504 19.0943Z"/>
	</g>

</svg>