<?xml version="1.0" encoding="utf-8" ?>
<svg xmlns="http://www.w3.org/2000/svg" xmlns:xlink="http://www.w3.org/1999/xlink" width="15" height="17">
	<path fill="rgb(255,0,0)" stroke="none" d="M11.0229 2.44655L14.5319 2.44655C14.792 2.44655 15 2.65625 15 2.91838C15 3.18051 14.792 3.39021 14.5319 3.39021L13.6859 3.39021L13.6859 14.4766C13.6859 15.8676 12.5624 17 11.1824 17L3.81761 17C2.43759 17 1.31415 15.8676 1.31415 14.4766L1.31415 3.39021L0.4681 3.39021C0.208044 3.39021 0 3.18051 0 2.91838C0 2.65625 0.208044 2.44655 0.4681 2.44655L3.97712 2.44655L3.97712 1.86986C3.97712 0.838816 4.80929 0 5.83218 0L9.16782 0C10.1907 0 11.0229 0.838816 11.0229 1.86986L11.0229 2.44655ZM5.71839 0.809524C5.17761 0.809524 4.73684 1.25759 4.73684 1.80731L4.73684 2.42857L10.2632 2.42857L10.2632 1.80731C10.2632 1.25759 9.82239 0.809524 9.28161 0.809524L5.71839 0.809524ZM12.6282 14.575C12.6282 15.4649 11.9404 16.1905 11.0967 16.1905L3.89993 16.1905C3.05625 16.1905 2.36842 15.4649 2.36842 14.575L2.36842 3.2381L12.6316 3.2381L12.6316 14.575L12.6282 14.575ZM7.89474 14.0777C7.89474 14.352 7.7193 14.5714 7.5 14.5714C7.2807 14.5714 7.10526 14.3483 7.10526 14.074L7.10526 5.3509C7.10526 5.07659 7.2807 4.85714 7.5 4.85714C7.7193 4.85714 7.89474 5.07659 7.89474 5.3509L7.89474 14.0777ZM4.34211 13.7619C4.5614 13.7619 4.73684 13.556 4.73684 13.2986L4.73684 6.12994C4.73684 5.87256 4.5614 5.66667 4.34211 5.66667C4.12281 5.66667 3.94737 5.87256 3.94737 6.12994L3.94737 13.2986C3.94737 13.556 4.12573 13.7619 4.34211 13.7619ZM11.0526 13.2986C11.0526 13.556 10.8772 13.7619 10.6579 13.7619C10.4386 13.7619 10.2632 13.556 10.2632 13.2986L10.2632 6.12994C10.2632 5.87256 10.4386 5.66667 10.6579 5.66667C10.8772 5.66667 11.0526 5.87256 11.0526 6.12994L11.0526 13.2986Z" fill-rule="evenodd"/>

</svg>