<?xml version="1.0" encoding="utf-8" ?>
<svg xmlns="http://www.w3.org/2000/svg" xmlns:xlink="http://www.w3.org/1999/xlink" width="29" height="26">
	<defs>
		<clipPath id="clip_0">
			<rect x="-96" y="-701" width="360" height="740" clip-rule="evenodd"/>
		</clipPath>
	</defs>
	<g clip-path="url(#clip_0)">
		<path fill="rgb(51,51,51)" stroke="none" d="M20.983 0.0188088C23.1287 0.0188088 25.139 0.865204 26.6576 2.41379C28.1761 3.96238 29.0061 6.01881 29 8.2069C29 10.395 28.1638 12.4514 26.6453 14L15.0748 25.7555C14.915 25.9185 14.6998 26 14.4908 26C14.2817 26 14.0666 25.9122 13.9067 25.7492L2.36085 13.9749C0.842304 12.4263 3.36645e-05 10.3762 3.36645e-05 8.18809C-0.0061143 6 0.830008 3.94357 2.34855 2.39498C3.86095 0.852665 5.87748 0 8.01698 0C10.1626 0 12.1853 0.858934 13.7038 2.40752L14.5092 3.22884L15.3023 2.42006C16.8209 0.871473 18.8374 0.0188088 20.983 0.0188088Z" fill-rule="evenodd"/>
	</g>

</svg>