<?xml version="1.0" encoding="utf-8" ?>
<svg xmlns="http://www.w3.org/2000/svg" xmlns:xlink="http://www.w3.org/1999/xlink" width="23" height="21">
	<path fill="rgb(51,51,51)" stroke="none" d="M16.6417 0.0151917C18.3434 0.0151917 19.9379 0.698818 21.1422 1.9496C22.3466 3.20039 23.0049 4.86135 23 6.62865C23 8.39595 22.3368 10.0569 21.1325 11.3077L11.9559 20.8025C11.8291 20.9342 11.6585 21 11.4927 21C11.3269 21 11.1562 20.9291 11.0295 20.7974L1.8724 11.2874C0.668034 10.0367 2.66994e-05 8.38076 2.66994e-05 6.61346C-0.00484927 4.84615 0.658283 3.18519 1.86265 1.93441C3.06214 0.688691 4.66145 0 6.35829 0C8.06 0 9.6642 0.693755 10.8686 1.94454L11.5073 2.60791L12.1363 1.95467C13.3407 0.703882 14.94 0.0151917 16.6417 0.0151917ZM11.5 19.4581L20.2079 10.4768C21.1638 9.46727 21.6906 8.12808 21.6857 6.70132C21.6857 5.27456 21.1638 3.93537 20.2079 2.92582C19.252 1.92142 17.984 1.36514 16.6379 1.36514C15.2919 1.36514 14.019 1.92142 13.0631 2.93097L11.9706 4.08474C11.7121 4.35773 11.2976 4.35773 11.0391 4.08474L9.93689 2.92067C8.98099 1.91112 7.70809 1.35484 6.35714 1.35484C5.01108 1.35484 3.74305 1.91112 2.79203 2.91552C1.83613 3.91991 1.31429 5.25911 1.31429 6.68587C1.31429 8.11263 1.84101 9.45182 2.79691 10.4614L11.5 19.4581Z" fill-rule="evenodd"/>

</svg>