<?xml version="1.0" encoding="utf-8" ?>
<svg xmlns="http://www.w3.org/2000/svg" xmlns:xlink="http://www.w3.org/1999/xlink" width="22" height="17">
	<path fill="rgb(51,51,51)" stroke="none" transform="matrix(0.95 0 0 0.95 0.549805 0.400024)" d="M0.942856 1.6L21.0571 1.6C21.5757 1.6 22 1.24 22 0.8C22 0.36 21.5757 0 21.0571 0L0.942856 0C0.424285 0 0 0.36 0 0.8C0 1.24 0.424285 1.6 0.942856 1.6ZM0.942856 9.22821L21.0571 9.22821C21.5757 9.22821 22 8.86821 22 8.42821C22 7.98821 21.5757 7.62821 21.0571 7.62821L0.942856 7.62821C0.424285 7.62821 0 7.98821 0 8.42821C0 8.86821 0.424285 9.22821 0.942856 9.22821ZM21.0571 16.8564L0.942856 16.8564C0.424285 16.8564 0 16.4964 0 16.0564C0 15.6164 0.424285 15.2564 0.942856 15.2564L21.0571 15.2564C21.5757 15.2564 22 15.6164 22 16.0564C22 16.4964 21.5757 16.8564 21.0571 16.8564Z" fill-rule="evenodd"/>

</svg>