<?xml version="1.0" encoding="utf-8" ?>
<svg xmlns="http://www.w3.org/2000/svg" xmlns:xlink="http://www.w3.org/1999/xlink" width="23" height="21">
	<defs>
		<clipPath id="clip_0">
			<rect x="-260" y="-215" width="1440" height="1147" clip-rule="evenodd"/>
		</clipPath>
	</defs>
	<g clip-path="url(#clip_0)">
		<path fill="rgb(252,52,97)" stroke="none" d="M21.1422 1.9496C19.9379 0.698818 18.3434 0.0151917 16.6417 0.0151917C14.94 0.0151917 13.3407 0.703882 12.1363 1.95467L11.5073 2.60791L10.8686 1.94454C9.6642 0.693755 8.06 0 6.35829 0C4.66145 0 3.06214 0.688691 1.86265 1.93441C0.658283 3.18519 -0.00484927 4.84615 2.66994e-05 6.61346C2.66994e-05 8.38076 0.668034 10.0367 1.8724 11.2874L11.0295 20.7974C11.1562 20.9291 11.3269 21 11.4927 21C11.6585 21 11.8291 20.9342 11.9559 20.8025L21.1325 11.3077C22.3368 10.0569 23 8.39595 23 6.62865C23.0049 4.86135 22.3466 3.20039 21.1422 1.9496Z"/>
	</g>

</svg>