<?xml version="1.0" encoding="utf-8" ?>
<svg xmlns="http://www.w3.org/2000/svg" xmlns:xlink="http://www.w3.org/1999/xlink" width="32" height="28">
	<defs>
		<clipPath id="clip_0">
			<rect x="-849" y="-714" width="1440" height="1849" clip-rule="evenodd"/>
		</clipPath>
	</defs>
	<g clip-path="url(#clip_0)">
		<path fill="rgb(156,160,161)" stroke="none" d="M23.1535 0.0202556C25.5211 0.0202556 27.7394 0.931758 29.4151 2.59947C31.0907 4.26718 32.0065 6.48179 31.9997 8.8382C31.9997 11.1946 31.0771 13.4092 29.4015 15.0769L16.6342 27.7367C16.4578 27.9122 16.2204 28 15.9897 28C15.7591 28 15.5216 27.9055 15.3452 27.7299L2.60506 15.0499C0.929433 13.3822 3.71468e-05 11.1743 3.71468e-05 8.81794C-0.00674676 6.46154 0.915865 4.24693 2.59149 2.57921C4.26033 0.918254 6.48545 0 8.84626 0C11.2138 0 13.4457 0.925006 15.1214 2.59272L16.0101 3.47721L16.8852 2.60622C18.5608 0.93851 20.7859 0.0202556 23.1535 0.0202556ZM15.9897 26.1935L28.1153 13.9691C29.4452 12.623 30.178 10.8374 30.1712 8.93509C30.1712 7.03275 29.4452 5.24715 28.1153 3.90109C26.7853 2.5619 25.0211 1.82019 23.1483 1.82019C21.2756 1.82019 19.5046 2.5619 18.1746 3.90796L16.6547 5.44632C16.2951 5.8103 15.7183 5.8103 15.3587 5.44632L13.8252 3.89422C12.4952 2.54816 10.7242 1.80645 8.84469 1.80645C6.97191 1.80645 5.20771 2.54816 3.88455 3.88736C2.55461 5.22655 1.82857 7.01215 1.82857 8.91449C1.82857 10.8168 2.5614 12.6024 3.89134 13.9485L15.9897 26.1935Z" fill-rule="evenodd"/>
	</g>

</svg>