<?xml version="1.0" encoding="utf-8" ?>
<svg xmlns="http://www.w3.org/2000/svg" xmlns:xlink="http://www.w3.org/1999/xlink" width="30" height="28">
	<defs>
		<clipPath id="clip_0">
			<rect x="-26" y="-700" width="360" height="740" clip-rule="evenodd"/>
		</clipPath>
	</defs>
	<g clip-path="url(#clip_0)">
		<path fill="rgb(0,0,0)" stroke="none" d="M15.6053 0.284576L29.723 12.6334C30.0624 12.9352 30.0932 13.4482 29.7971 13.7862C29.6305 13.9673 29.4022 14.0578 29.1739 14.0578C28.9764 14.0578 28.779 13.9914 28.6185 13.8526L26.0764 11.6254L26.0764 25.4288C26.0764 26.8713 25.1508 28 23.9784 28L19.5234 28C18.4375 28 17.5551 27.1369 17.5551 26.0746L17.5551 18.7535C17.5551 18.5905 17.4194 18.4577 17.2528 18.4577L12.7546 18.4577C12.588 18.4577 12.4522 18.5905 12.4522 18.7535L12.4522 26.0746C12.4522 27.1369 11.5699 28 10.4839 28L6.0289 28C4.86887 28 3.93098 27.0766 3.93098 25.9479L3.93098 11.547L1.3888 13.7741C1.22837 13.9129 1.03092 13.9793 0.833465 13.9793C0.605162 13.9793 0.376859 13.8888 0.21026 13.7077C-0.0920872 13.3697 -0.0674058 12.8567 0.278134 12.5549L14.3959 0.206113C14.7229 -0.0775593 15.2165 -0.0654882 15.5251 0.22422C15.5559 0.242327 15.5806 0.260434 15.6053 0.284576ZM24.4561 25.2815L24.4561 10.3215L14.9156 2.21691L5.45613 10.2445L5.45613 25.8025C5.45613 26.0334 5.65554 26.2169 5.89234 26.2169L10.3915 26.2169C10.5598 26.2169 10.6969 26.0867 10.6969 25.9268L10.6969 18.7458C10.6969 17.7038 11.588 16.8573 12.6847 16.8573L17.2275 16.8573C18.3243 16.8573 19.2154 17.7038 19.2154 18.7458L19.2154 25.915C19.2154 26.0748 19.3525 26.2051 19.5207 26.2051L24.0199 26.2051C24.157 26.2051 24.4561 25.8558 24.4561 25.2815Z" fill-rule="evenodd"/>
	</g>

</svg>