<?xml version="1.0" encoding="utf-8" ?>
<svg xmlns="http://www.w3.org/2000/svg" xmlns:xlink="http://www.w3.org/1999/xlink" width="20" height="20">
	<defs>
		<clipPath id="clip_0">
			<rect x="-955" y="-252" width="1440" height="740" clip-rule="evenodd"/>
		</clipPath>
	</defs>
	<g clip-path="url(#clip_0)">
		<path fill="rgb(0,0,0)" stroke="none" transform="translate(3.33325 0.833008)" d="M11.6667 5.83333L10.8333 5.83333L10.8333 4.16667C10.8333 1.86667 8.96667 0 6.66667 0C4.36667 0 2.5 1.86667 2.5 4.16667L2.5 5.83333L1.66667 5.83333C0.75 5.83333 0 6.58333 0 7.5L0 15.8333C0 16.75 0.75 17.5 1.66667 17.5L11.6667 17.5C12.5833 17.5 13.3333 16.75 13.3333 15.8333L13.3333 7.5C13.3333 6.58333 12.5833 5.83333 11.6667 5.83333ZM4.08333 4.16667L4.08333 5.83333L9.25 5.83333L9.25 4.16667C9.25 2.74167 8.09167 1.58333 6.66667 1.58333C5.24167 1.58333 4.08333 2.74167 4.08333 4.16667ZM6.66667 13.3333C5.75 13.3333 5 12.5833 5 11.6667C5 10.75 5.75 10 6.66667 10C7.58333 10 8.33333 10.75 8.33333 11.6667C8.33333 12.5833 7.58333 13.3333 6.66667 13.3333Z" fill-rule="evenodd"/>
	</g>
	<defs>
		<clipPath id="clip_1">
			<path d="M14.1666 6.66634L14.9999 6.66634C15.9166 6.66634 16.6666 7.41634 16.6666 8.33301L16.6666 16.6663C16.6666 17.583 15.9166 18.333 14.9999 18.333L4.99992 18.333C4.08325 18.333 3.33325 17.583 3.33325 16.6663L3.33325 8.33301C3.33325 7.41634 4.08325 6.66634 4.99992 6.66634L5.83325 6.66634L5.83325 4.99967C5.83325 2.69967 7.69992 0.833008 9.99992 0.833008C12.2999 0.833008 14.1666 2.69967 14.1666 4.99967L14.1666 6.66634ZM7.41659 6.66634L7.41659 4.99967C7.41659 3.57467 8.57492 2.41634 9.99992 2.41634C11.4249 2.41634 12.5833 3.57467 12.5833 4.99967L12.5833 6.66634L7.41659 6.66634ZM8.33325 12.4997C8.33325 13.4163 9.08325 14.1663 9.99992 14.1663C10.9166 14.1663 11.6666 13.4163 11.6666 12.4997C11.6666 11.583 10.9166 10.833 9.99992 10.833C9.08325 10.833 8.33325 11.583 8.33325 12.4997Z" clip-rule="evenodd"/>
		</clipPath>
	</defs>
	<g clip-path="url(#clip_1)">
		<rect fill="rgb(255,255,255)" stroke="none" width="20" height="20"/>
	</g>
	<defs>
		<clipPath id="clip_2">
			<path d="M14.1666 6.66634L14.9999 6.66634C15.9166 6.66634 16.6666 7.41634 16.6666 8.33301L16.6666 16.6663C16.6666 17.583 15.9166 18.333 14.9999 18.333L4.99992 18.333C4.08325 18.333 3.33325 17.583 3.33325 16.6663L3.33325 8.33301C3.33325 7.41634 4.08325 6.66634 4.99992 6.66634L5.83325 6.66634L5.83325 4.99967C5.83325 2.69967 7.69992 0.833008 9.99992 0.833008C12.2999 0.833008 14.1666 2.69967 14.1666 4.99967L14.1666 6.66634ZM7.41659 6.66634L7.41659 4.99967C7.41659 3.57467 8.57492 2.41634 9.99992 2.41634C11.4249 2.41634 12.5833 3.57467 12.5833 4.99967L12.5833 6.66634L7.41659 6.66634ZM8.33325 12.4997C8.33325 13.4163 9.08325 14.1663 9.99992 14.1663C10.9166 14.1663 11.6666 13.4163 11.6666 12.4997C11.6666 11.583 10.9166 10.833 9.99992 10.833C9.08325 10.833 8.33325 11.583 8.33325 12.4997Z" clip-rule="evenodd"/>
		</clipPath>
	</defs>
	<g clip-path="url(#clip_2)">
		<path fill="rgb(210,218,222)" stroke="none" d="M0 0L20 0L20 20L0 20L0 0Z"/>
	</g>

</svg>