<?xml version="1.0" encoding="utf-8" ?>
<svg xmlns="http://www.w3.org/2000/svg" xmlns:xlink="http://www.w3.org/1999/xlink" width="20" height="20">
	<defs>
		<clipPath id="clip_0">
			<rect x="-955" y="-204" width="1440" height="740" clip-rule="evenodd"/>
		</clipPath>
	</defs>
	<g clip-path="url(#clip_0)">
		<path fill="rgb(51,51,51)" stroke="none" transform="translate(1.66675 2.5)" d="M12.1212 3.78788C12.1212 5.88068 10.4261 7.57576 8.33333 7.57576C6.24053 7.57576 4.54545 5.88068 4.54545 3.78788C4.54545 1.69508 6.24053 0 8.33333 0C10.4261 0 12.1212 1.69508 12.1212 3.78788ZM0 13.1313C0 10.4444 5.55208 9.09091 8.33333 9.09091C11.1146 9.09091 16.6667 10.4444 16.6667 13.1313L16.6667 15.1515L0 15.1515L0 13.1313Z" fill-rule="evenodd"/>
	</g>
	<defs>
		<clipPath id="clip_1">
			<path d="M10.0001 10.0758C12.0929 10.0758 13.788 8.38068 13.788 6.28788C13.788 4.19508 12.0929 2.5 10.0001 2.5C7.90728 2.5 6.2122 4.19508 6.2122 6.28788C6.2122 8.38068 7.90728 10.0758 10.0001 10.0758ZM10.0001 11.5909C7.21883 11.5909 1.66675 12.9444 1.66675 15.6313L1.66675 17.6515L18.3334 17.6515L18.3334 15.6313C18.3334 12.9444 12.7813 11.5909 10.0001 11.5909Z" clip-rule="evenodd"/>
		</clipPath>
	</defs>
	<g clip-path="url(#clip_1)">
		<rect fill="rgb(255,255,255)" stroke="none" width="20" height="20"/>
	</g>
	<defs>
		<clipPath id="clip_2">
			<path d="M10.0001 10.0758C12.0929 10.0758 13.788 8.38068 13.788 6.28788C13.788 4.19508 12.0929 2.5 10.0001 2.5C7.90728 2.5 6.2122 4.19508 6.2122 6.28788C6.2122 8.38068 7.90728 10.0758 10.0001 10.0758ZM10.0001 11.5909C7.21883 11.5909 1.66675 12.9444 1.66675 15.6313L1.66675 17.6515L18.3334 17.6515L18.3334 15.6313C18.3334 12.9444 12.7813 11.5909 10.0001 11.5909Z" clip-rule="evenodd"/>
		</clipPath>
	</defs>
	<g clip-path="url(#clip_2)">
		<path fill="rgb(210,218,222)" stroke="none" d="M0 0L20 0L20 20L0 20L0 0Z"/>
	</g>

</svg>