<?xml version="1.0" encoding="utf-8" ?>
<svg xmlns="http://www.w3.org/2000/svg" xmlns:xlink="http://www.w3.org/1999/xlink" width="17" height="17">
	<defs>
		<clipPath id="clip_0">
			<rect x="-1062" y="-720" width="1440" height="1849" clip-rule="evenodd"/>
		</clipPath>
	</defs>
	<g clip-path="url(#clip_0)">
		<path fill="rgb(255,255,255)" fill-opacity="0.67450982" stroke="none" d="M0 0L0 1.67018L1.7 1.67018L4.76 8.00849L3.6125 10.0545C3.4765 10.2883 3.4 10.5639 3.4 10.8561C3.4 11.7747 4.165 12.5263 5.1 12.5263L15.3 12.5263L15.3 10.8561L5.457 10.8561C5.338 10.8561 5.2445 10.7643 5.2445 10.6474L5.27 10.5472L6.035 9.18596L12.3675 9.18596C13.005 9.18596 13.566 8.84358 13.855 8.32582L16.898 2.90611C16.966 2.78919 17 2.64723 17 2.50526C17 2.04596 16.6175 1.67018 16.15 1.67018L3.5785 1.67018L2.7795 0L0 0ZM5.36394 13.4211C4.37726 13.4211 3.57895 14.2263 3.57895 15.2105C3.57895 16.1947 4.37726 17 5.36394 17C6.35061 17 7.15789 16.1947 7.15789 15.2105C7.15789 14.2263 6.35061 13.4211 5.36394 13.4211ZM11.6316 15.2105C11.6316 14.2263 12.4299 13.4211 13.4166 13.4211C14.4032 13.4211 15.2105 14.2263 15.2105 15.2105C15.2105 16.1947 14.4032 17 13.4166 17C12.4299 17 11.6316 16.1947 11.6316 15.2105Z" fill-rule="evenodd"/>
	</g>

</svg>