<?xml version="1.0" encoding="utf-8" ?>
<svg xmlns="http://www.w3.org/2000/svg" xmlns:xlink="http://www.w3.org/1999/xlink" width="12" height="12">
	<defs>
		<clipPath id="clip_0">
			<rect x="-479" y="-882" width="1440" height="1782" clip-rule="evenodd"/>
		</clipPath>
	</defs>
	<g clip-path="url(#clip_0)">
		<path fill="rgb(61,206,66)" stroke="none" d="M10.8242 8.18318L9.12749 7.98946C8.72 7.9427 8.31919 8.08298 8.03195 8.37023L6.80281 9.59937C4.91234 8.63743 3.36255 7.09432 2.40061 5.19715L3.63644 3.96133C3.92368 3.67408 4.06396 3.27327 4.0172 2.86578L3.82348 1.18239C3.74332 0.507691 3.17551 0 2.49414 0L1.33848 0C0.583624 0 -0.0443069 0.627934 0.00245392 1.38279C0.3565 7.08764 4.91902 11.6435 10.6172 11.9975C11.372 12.0443 11.9999 11.4164 11.9999 10.6615L11.9999 9.50585C12.0066 8.83116 11.4989 8.26334 10.8242 8.18318Z"/>
	</g>

</svg>