<?xml version="1.0" encoding="utf-8" ?>
<svg xmlns="http://www.w3.org/2000/svg" xmlns:xlink="http://www.w3.org/1999/xlink" width="17" height="14">
	<defs>
		<clipPath id="clip_0">
			<rect x="-192.15967" y="-337.56006" width="929.27997" height="710.39996" clip-rule="evenodd"/>
		</clipPath>
	</defs>
	<g clip-path="url(#clip_0)">
		<path fill="rgb(210,218,222)" stroke="none" transform="matrix(0.96 0 0 0.96 0.47998 0.679932)" d="M1.66667 0L15 0C15.9167 0 16.6667 0.75 16.6667 1.66667L16.6667 11.6667C16.6667 12.5833 15.9167 13.3333 15 13.3333L1.66667 13.3333C0.75 13.3333 0 12.5833 0 11.6667L0.00833333 1.66667C0.00833333 0.75 0.75 0 1.66667 0ZM8.33333 7.5L15 3.33333L15 1.66667L8.33333 5.83333L1.66667 1.66667L1.66667 3.33333L8.33333 7.5Z" fill-rule="evenodd"/>
	</g>

</svg>