<?xml version="1.0" encoding="utf-8" ?>
<svg xmlns="http://www.w3.org/2000/svg" xmlns:xlink="http://www.w3.org/1999/xlink" width="26" height="28">
	<defs>
		<clipPath id="clip_0">
			<rect x="-914" y="-714" width="1440" height="1849" clip-rule="evenodd"/>
		</clipPath>
	</defs>
	<g clip-path="url(#clip_0)">
		<path fill="rgb(156,160,161)" stroke="none" d="M17.1577 19.9419C18.0626 18.7558 19.4771 17.9884 21.0634 17.9884C23.7837 17.9884 26 20.2326 26 22.9942C26 25.7558 23.7894 28 21.0692 28C18.3489 28 16.1383 25.75 16.1383 22.9942C16.1383 22.4128 16.2414 21.8488 16.4247 21.3256L8.85374 17.0291C7.9489 18.2267 6.52863 19 4.93656 19C2.2163 19 0 16.7558 0 13.9942C0 11.2326 2.2163 8.98837 4.93084 8.98837C6.52291 8.98837 7.94317 9.75581 8.84229 10.9535L16.4075 6.66279C16.2242 6.14535 16.1269 5.58721 16.1269 5.00581C16.1269 2.24419 18.3374 0 21.0577 0C23.778 0 25.9885 2.24419 25.9885 5.00581C25.9885 7.76744 23.7722 10.0116 21.0577 10.0116C19.4656 10.0116 18.0454 9.23837 17.1463 8.04651L9.57533 12.3372C9.75859 12.8605 9.85595 13.4128 9.85595 13.9942C9.85595 14.5698 9.75859 15.1279 9.58106 15.6453L17.1577 19.9419ZM24.448 5.01163C24.448 3.11628 22.9304 1.57558 21.0634 1.57558C19.2022 1.57558 17.6789 3.11628 17.6789 5.01163C17.6789 6.90698 19.1965 8.44767 21.0634 8.44767C22.9304 8.44767 24.448 6.90698 24.448 5.01163ZM4.93656 17.4302C3.0696 17.4302 1.55198 15.8895 1.55198 13.9942C1.55198 12.0988 3.0696 10.5581 4.93656 10.5581C6.80352 10.5581 8.32115 12.0988 8.32115 13.9942C8.32115 15.8895 6.7978 17.4302 4.93656 17.4302ZM17.6789 22.9884C17.6789 24.8837 19.1965 26.4244 21.0634 26.4244C22.9304 26.4244 24.448 24.8837 24.448 22.9884C24.448 21.093 22.9304 19.5523 21.0634 19.5523C19.1965 19.5523 17.6789 21.093 17.6789 22.9884Z" fill-rule="evenodd"/>
	</g>

</svg>