<?xml version="1.0" encoding="utf-8" ?>
<svg xmlns="http://www.w3.org/2000/svg" xmlns:xlink="http://www.w3.org/1999/xlink" width="28" height="28">
	<defs>
		<clipPath id="clip_0">
			<rect x="-166" y="-699" width="360" height="740" clip-rule="evenodd"/>
		</clipPath>
	</defs>
	<g clip-path="url(#clip_0)">
		<path fill="rgb(0,0,0)" stroke="none" d="M20.9519 19.7676L27.7578 26.5721C28.0807 26.8949 28.0807 27.4288 27.7578 27.7517C27.5964 27.9193 27.379 28 27.1679 28C26.9568 28 26.7394 27.9131 26.578 27.7517L19.772 20.9472C17.6731 22.7725 14.9346 23.8776 11.9415 23.8776C5.35906 23.8776 0 18.5197 0 11.9388C0 5.35787 5.35285 0 11.9415 0C18.5238 0 23.8829 5.35166 23.8829 11.9388C23.8829 14.9313 22.7776 17.6692 20.9519 19.7676ZM12 2C6.48881 2 2 6.4814 2 11.997C2 17.5125 6.48881 22 12 22C17.5172 22 22 17.5065 22 11.997C22 6.48745 17.5172 2 12 2Z" fill-rule="evenodd"/>
	</g>

</svg>