<?xml version="1.0" encoding="utf-8" ?>
<svg xmlns="http://www.w3.org/2000/svg" xmlns:xlink="http://www.w3.org/1999/xlink" width="28" height="28">
	<defs>
		<clipPath id="clip_0">
			<rect x="-396" y="-1364" width="1440" height="1700" clip-rule="evenodd"/>
		</clipPath>
	</defs>
	<g clip-path="url(#clip_0)">
		<path fill="rgb(111,63,170)" stroke="none" d="M14 28C21.732 28 28 21.732 28 14C28 6.26801 21.732 0 14 0C6.26801 0 0 6.26801 0 14C0 21.732 6.26801 28 14 28Z"/>
	</g>
	<defs>
		<clipPath id="clip_1">
			<rect x="-396" y="-1364" width="1440" height="1700" clip-rule="evenodd"/>
		</clipPath>
	</defs>
	<g clip-path="url(#clip_1)">
		<path fill="rgb(81,45,132)" stroke="none" transform="translate(7.1416 6.53711)" d="M12.932 1.14359C9.52433 0.320545 6.11057 -0.642174 2.61593 0.580967C0.35329 1.42944 0.35329 3.88065 0.447572 5.95472C0.447572 6.52036 -0.212342 7.27461 0.0704466 7.93452C0.636079 9.82004 1.10749 11.7056 3.08728 12.6483C3.37013 12.8369 3.08728 13.2139 3.27585 13.4968C3.18156 13.4968 2.993 13.5911 2.993 13.6853C2.993 14.1372 3.19578 14.8284 3.06109 15.274L9.07704 21.2875C15.2617 20.3025 20.0954 15.2681 20.7755 8.98709L12.932 1.14359Z"/>
	</g>
	<defs>
		<clipPath id="clip_2">
			<rect x="-396" y="-1364" width="1440" height="1700" clip-rule="evenodd"/>
		</clipPath>
	</defs>
	<g clip-path="url(#clip_2)">
		<path fill="rgb(255,255,255)" stroke="none" transform="translate(6.24707 5.98633)" d="M13.8289 3.56743L13.8331 3.58463C14.2551 5.54948 14.2551 7.54196 13.8331 9.50677L13.8289 9.52396C13.4875 10.9308 11.9486 12.4405 10.5353 12.7546L10.5194 12.758C9.37667 12.9802 8.22548 13.0912 7.07484 13.0912C6.73624 13.0912 6.39754 13.0804 6.05898 13.0611L4.49823 14.7151C4.11187 15.1253 3.43242 14.8462 3.43242 14.2777L3.43242 12.7072C2.07188 12.3111 0.647559 10.8708 0.320286 9.52391L0.316493 9.50672C-0.105498 7.54196 -0.105498 5.54938 0.316493 3.58463L0.320286 3.56743C0.662081 2.16061 2.20108 0.650856 3.61387 0.336786L3.63029 0.333428C5.91571 -0.111143 8.23352 -0.111143 10.5194 0.333428L10.5354 0.336786C11.9486 0.650856 13.4876 2.16051 13.8289 3.56743ZM10.3129 11.7654C11.2329 11.5509 12.3908 10.39 12.6167 9.45617C12.9935 7.6494 12.9935 5.81779 12.6167 4.01097C12.3909 3.07715 11.2334 1.91625 10.313 1.70176C8.20993 1.28301 6.07715 1.28301 3.97365 1.70176C3.05364 1.91625 1.89616 3.07715 1.66991 4.01097C1.29353 5.81774 1.29353 7.64935 1.66991 9.45612C1.89616 10.3899 3.05364 11.5508 3.97365 11.7653L3.97434 11.7655C4.01539 11.774 4.04521 11.8111 4.04521 11.8548L4.04521 14.5017C4.04521 14.6339 4.1995 14.6992 4.28732 14.6033L5.48842 13.313C5.48842 13.313 6.44552 12.2845 6.61766 12.0997C6.63443 12.0815 6.65762 12.0717 6.68175 12.0724C7.89452 12.1076 9.10853 12.0051 10.3129 11.7654Z" fill-rule="evenodd"/>
	</g>
	<defs>
		<clipPath id="clip_3">
			<rect x="-396" y="-1364" width="1440" height="1700" clip-rule="evenodd"/>
		</clipPath>
	</defs>
	<g clip-path="url(#clip_3)">
		<path fill="rgb(255,255,255)" stroke="none" transform="translate(9.96387 9.48633)" d="M6.24969 7.7033C6.09328 7.65578 5.94426 7.62389 5.80573 7.56653C4.37123 6.97136 3.05107 6.20355 2.00539 5.02662C1.41072 4.35736 0.945273 3.60174 0.551851 2.8021C0.365257 2.42289 0.20803 2.02887 0.0477413 1.63731C-0.0983837 1.28031 0.116866 0.911496 0.343491 0.642434C0.556171 0.389942 0.829882 0.196785 1.12629 0.0543245C1.35762 -0.0568005 1.58577 0.00729326 1.75476 0.203348C2.11996 0.627285 2.45552 1.07288 2.7271 1.5643C2.89417 1.86656 2.84834 2.23603 2.54554 2.44171C2.47193 2.49169 2.40488 2.55043 2.33636 2.60686C2.2762 2.65636 2.21966 2.70634 2.17842 2.77333C2.10312 2.89589 2.09951 3.04054 2.14796 3.17381C2.52131 4.1998 3.1506 4.99769 4.18337 5.42748C4.34864 5.49622 4.51456 5.57623 4.70498 5.55408C5.02381 5.51684 5.12706 5.16706 5.35051 4.98435C5.56888 4.80579 5.84801 4.80344 6.08322 4.9523C6.31854 5.10127 6.54659 5.26107 6.77332 5.42267C6.9959 5.58126 7.21744 5.7363 7.42268 5.91715C7.6201 6.091 7.68808 6.31905 7.5769 6.55492C7.37346 6.987 7.07733 7.34636 6.65027 7.57582C6.52969 7.64046 6.38564 7.66141 6.24969 7.7033C6.09328 7.65578 6.38564 7.66141 6.24969 7.7033Z"/>
	</g>
	<defs>
		<clipPath id="clip_4">
			<rect x="-396" y="-1364" width="1440" height="1700" clip-rule="evenodd"/>
		</clipPath>
	</defs>
	<g clip-path="url(#clip_4)">
		<path fill="rgb(255,255,255)" stroke="none" transform="translate(13.666 9.0459)" d="M0.338139 0.00074203C2.21441 0.0533514 3.75556 1.29853 4.08582 3.15353C4.14209 3.46962 4.16211 3.79272 4.18715 4.11357C4.19771 4.24848 4.12126 4.37667 3.97568 4.37848C3.82529 4.38028 3.75764 4.25439 3.7478 4.11959C3.72849 3.8526 3.71509 3.58436 3.67829 3.31967C3.48409 1.92191 2.36956 0.765547 0.978311 0.51743C0.768912 0.480078 0.554756 0.470289 0.342623 0.448031C0.208584 0.433976 0.0330372 0.425883 0.0033419 0.259195C-0.0215409 0.119469 0.0963653 0.00823422 0.22942 0.00107015C0.265459 -0.00106266 0.301826 0.000632655 0.338139 0.00074203C2.21452 0.0533514 0.301826 0.000632655 0.338139 0.00074203Z"/>
	</g>
	<defs>
		<clipPath id="clip_5">
			<rect x="-396" y="-1364" width="1440" height="1700" clip-rule="evenodd"/>
		</clipPath>
	</defs>
	<g clip-path="url(#clip_5)">
		<path fill="rgb(255,255,255)" stroke="none" transform="translate(14.0107 10.0488)" d="M2.84507 2.69425C2.84195 2.71771 2.84036 2.77278 2.82658 2.82462C2.77682 3.01297 2.49113 3.03654 2.42545 2.8465C2.40592 2.79012 2.40303 2.72591 2.40292 2.66521C2.40226 2.26785 2.31591 1.87082 2.11548 1.52503C1.90947 1.16962 1.59469 0.870967 1.2256 0.690116C1.00237 0.58085 0.761034 0.512873 0.516362 0.472459C0.409448 0.454741 0.301386 0.444076 0.193925 0.429092C0.0637138 0.410991 -0.00584873 0.32803 0.000385648 0.199733C0.00612784 0.0795296 0.0940107 -0.00704072 0.225042 0.000451463C0.655597 0.0248421 1.07155 0.11803 1.45442 0.320701C2.23284 0.732991 2.67756 1.38366 2.80739 2.25259C2.81324 2.29202 2.82264 2.33096 2.82565 2.37044C2.83298 2.4679 2.83763 2.56551 2.84507 2.69425C2.84195 2.7176 2.83763 2.56551 2.84507 2.69425Z"/>
	</g>
	<defs>
		<clipPath id="clip_6">
			<rect x="-396" y="-1364" width="1440" height="1700" clip-rule="evenodd"/>
		</clipPath>
	</defs>
	<g clip-path="url(#clip_6)">
		<path fill="rgb(255,255,255)" stroke="none" transform="translate(14.2949 11.0767)" d="M1.39297 1.62099C1.23602 1.62383 1.15202 1.53688 1.13578 1.39305C1.12457 1.29275 1.1156 1.19103 1.09164 1.09336C1.0445 0.901025 0.942292 0.722853 0.780526 0.605001C0.704182 0.549384 0.617612 0.508861 0.526995 0.482611C0.411877 0.449306 0.292221 0.458494 0.177432 0.430384C0.05269 0.399814 -0.0163256 0.298752 0.00330717 0.181775C0.0211353 0.0752437 0.124713 -0.00788133 0.241143 0.000595234C0.968596 0.0530952 1.48851 0.429181 1.56272 1.28559C1.56803 1.34602 1.57415 1.40984 1.56075 1.46775C1.53767 1.56657 1.46439 1.61617 1.39297 1.62099C1.23596 1.62378 1.46439 1.61617 1.39297 1.62099Z"/>
	</g>
	<defs>
		<clipPath id="clip_7">
			<rect x="-396" y="-1364" width="1440" height="1700" clip-rule="evenodd"/>
		</clipPath>
	</defs>
	<g clip-path="url(#clip_7)">
		<path fill="rgb(209,209,209)" stroke="none" transform="translate(7.70215 7.41992)" d="M13.7037 2.41987L13.6991 2.40138C13.4894 1.55367 12.8672 0.671344 12.0881 0L11.0349 0.933406C11.6612 1.43243 12.1978 2.12373 12.3502 2.72606C12.767 4.63504 12.767 6.57016 12.3502 8.47919C12.1005 9.46581 10.82 10.6923 9.80263 10.919C8.47071 11.1723 7.12819 11.2805 5.78703 11.2434C5.76034 11.2426 5.7347 11.253 5.71616 11.2721C5.52579 11.4675 4.46737 12.5541 4.46737 12.5541L3.13912 13.9174C3.04199 14.0186 2.87137 13.9498 2.87137 13.81L2.87137 11.0135C2.87137 10.9673 2.83839 10.928 2.793 10.9191C2.79273 10.9191 2.79251 10.919 2.79223 10.919C2.21402 10.7902 1.55127 10.3383 1.0407 9.79125L0 10.7134C0.649961 11.4205 1.48827 11.9921 2.30606 12.2256L2.30606 13.9137C2.30606 14.5247 3.05063 14.8248 3.47402 14.3839L5.18437 12.606C5.55538 12.6267 5.92643 12.6383 6.29759 12.6383C7.55852 12.6383 8.82006 12.5191 10.0723 12.2802L10.0897 12.2766C11.6385 11.939 13.3249 10.3164 13.699 8.80409L13.7036 8.7856C14.1661 6.67352 14.1661 4.53184 13.7037 2.41987Z"/>
	</g>
	<defs>
		<clipPath id="clip_8">
			<rect x="-396" y="-1364" width="1440" height="1700" clip-rule="evenodd"/>
		</clipPath>
	</defs>
	<g clip-path="url(#clip_8)">
		<path fill="rgb(255,255,255)" stroke="none" transform="translate(16.166 17.1563)" d="M0.0560405 0.0613732C0.216735 -0.0152268 -0.128829 -0.0255268 0.0560405 0.0613732L0.0560405 0.0613732Z"/>
	</g>
	<defs>
		<clipPath id="clip_9">
			<rect x="-396" y="-1364" width="1440" height="1700" clip-rule="evenodd"/>
		</clipPath>
	</defs>
	<g clip-path="url(#clip_9)">
		<path fill="rgb(209,209,209)" stroke="none" transform="translate(11.8906 13.7349)" d="M5.4956 1.66868C5.29036 1.48794 5.06871 1.33279 4.84624 1.1742C4.61951 1.01259 4.39146 0.852797 4.15614 0.703828C3.92093 0.554969 3.64186 0.55732 3.42344 0.735875C3.19998 0.918586 3.09679 1.26837 2.77791 1.30561C2.58754 1.32776 2.42156 1.2477 2.2563 1.17901C1.62088 0.914648 1.13876 0.510398 0.774375 0L0 0.686328C0.0263047 0.716789 0.0514063 0.74807 0.0781484 0.778148C1.12388 1.95508 2.44409 2.72289 3.87849 3.31805C4.01691 3.37548 4.16604 3.40741 4.32245 3.45483C4.16604 3.4073 4.45851 3.41299 4.32245 3.45483C4.45851 3.41299 4.60245 3.39194 4.72314 3.3273C5.1503 3.09783 5.44633 2.73842 5.64977 2.30639C5.761 2.07058 5.69302 1.84253 5.4956 1.66868Z"/>
	</g>
	<defs>
		<clipPath id="clip_10">
			<rect x="-396" y="-1364" width="1440" height="1700" clip-rule="evenodd"/>
		</clipPath>
	</defs>
	<g clip-path="url(#clip_10)">
		<path fill="rgb(255,255,255)" stroke="none" transform="translate(14.0039 9.04688)" d="M0.00954318 0.000380506C0.00664318 0.000380506 0.00384318 8.05061e-05 0.000943184 8.05061e-05C-0.00185682 -0.000119494 0.00174318 8.05061e-05 0.00954318 0.000380506Z"/>
	</g>
	<defs>
		<clipPath id="clip_11">
			<rect x="-396" y="-1364" width="1440" height="1700" clip-rule="evenodd"/>
		</clipPath>
	</defs>
	<g clip-path="url(#clip_11)">
		<path fill="rgb(255,255,255)" stroke="none" transform="translate(14.0039 9.04688)" d="M0 0C0.00158594 0 0.00311719 0.0003 0.00470312 0.0003C0.108828 0.0071 1.80239 0.0924 0 0Z"/>
	</g>
	<defs>
		<clipPath id="clip_12">
			<rect x="-396" y="-1364" width="1440" height="1700" clip-rule="evenodd"/>
		</clipPath>
	</defs>
	<g clip-path="url(#clip_12)">
		<path fill="rgb(209,209,209)" stroke="none" transform="translate(16.3652 10.1631)" d="M0.330148 0L0 0.292633C0.51882 0.797398 0.876586 1.46639 0.978852 2.20259C1.0156 2.46739 1.02911 2.73552 1.04841 3.00251C1.0582 3.13742 1.1258 3.26326 1.2763 3.26151C1.42193 3.2597 1.49833 3.13157 1.48777 2.9966C1.46267 2.6758 1.44271 2.3526 1.38644 2.03656C1.2419 1.22456 0.865266 0.52943 0.330148 0Z"/>
	</g>
	<defs>
		<clipPath id="clip_13">
			<rect x="-396" y="-1364" width="1440" height="1700" clip-rule="evenodd"/>
		</clipPath>
	</defs>
	<g clip-path="url(#clip_13)">
		<path fill="rgb(209,209,209)" stroke="none" transform="translate(15.6943 10.7578)" d="M1.12273 1.5435C1.02818 0.910328 0.765516 0.393641 0.329219 0L0 0.291758C0.170242 0.442859 0.317516 0.62032 0.430937 0.816047C0.631367 1.16184 0.717719 1.55887 0.718375 1.95623C0.718484 2.01693 0.721383 2.08113 0.740906 2.13762C0.806695 2.32777 1.09227 2.3042 1.14204 2.11575C1.15582 2.0638 1.15741 2.00873 1.16052 1.98538C1.15741 2.00884 1.15298 1.8567 1.16052 1.98538C1.15298 1.8567 1.14838 1.75902 1.141 1.66146C1.1381 1.62181 1.12864 1.58288 1.12273 1.5435Z"/>
	</g>
	<defs>
		<clipPath id="clip_14">
			<rect x="-396" y="-1364" width="1440" height="1700" clip-rule="evenodd"/>
		</clipPath>
	</defs>
	<g clip-path="url(#clip_14)">
		<path fill="rgb(255,255,255)" stroke="none" transform="translate(16.8516 12.6909)" d="M0.00751911 0.0954663C-0.00608089 -0.139218 0.00181911 0.138037 0.00751911 0.0954663L0.00751911 0.0954663Z"/>
	</g>
	<defs>
		<clipPath id="clip_15">
			<rect x="-396" y="-1364" width="1440" height="1700" clip-rule="evenodd"/>
		</clipPath>
	</defs>
	<g clip-path="url(#clip_15)">
		<path fill="rgb(255,255,255)" stroke="none" transform="translate(15.668 12.6963)" d="M0.0367 0.0031C0.0412 0.0028 0.0455 0.0005 0.0498 0C0.0377 0 0.0191 0.0003 0 0.001C0.0124 0.0013 0.0237 0.0032 0.0367 0.0031Z"/>
	</g>
	<defs>
		<clipPath id="clip_16">
			<rect x="-396" y="-1364" width="1440" height="1700" clip-rule="evenodd"/>
		</clipPath>
	</defs>
	<g clip-path="url(#clip_16)">
		<path fill="rgb(255,255,255)" stroke="none" transform="translate(15.6318 12.6968)" d="M0.1 0.0021C0.0874796 0.0023 0.076415 0.0004 0.0643799 0C0.00410712 0.0017 -0.0581068 0.005 0.1 0.0021Z"/>
	</g>
	<defs>
		<clipPath id="clip_17">
			<rect x="-396" y="-1364" width="1440" height="1700" clip-rule="evenodd"/>
		</clipPath>
	</defs>
	<g clip-path="url(#clip_17)">
		<path fill="rgb(255,255,255)" stroke="none" transform="translate(15.6885 12.6963)" d="M0.0131 0C0.0086 0.0005 0.0043 0.0028 0 0.0031C0.0336 0.0008 0.0307 0 0.0131 0Z"/>
	</g>
	<defs>
		<clipPath id="clip_18">
			<rect x="-396" y="-1364" width="1440" height="1700" clip-rule="evenodd"/>
		</clipPath>
	</defs>
	<g clip-path="url(#clip_18)">
		<path fill="rgb(209,209,209)" stroke="none" transform="translate(15.0215 11.3491)" d="M0.335125 0L0 0.297062C0.0184844 0.308273 0.0365859 0.319977 0.0541406 0.332719C0.215906 0.45057 0.318117 0.628742 0.365258 0.821078C0.389211 0.91875 0.39807 1.02036 0.409391 1.12077C0.424867 1.2582 0.502906 1.34269 0.646516 1.34761C0.656961 1.34734 0.667242 1.34712 0.67375 1.34706C0.742875 1.33941 0.812164 1.29095 0.834312 1.19536C0.847711 1.13755 0.841586 1.07362 0.836281 1.0132C0.794609 0.534406 0.613594 0.205898 0.335125 0Z"/>
	</g>

</svg>