<?xml version="1.0" encoding="utf-8" ?>
<svg xmlns="http://www.w3.org/2000/svg" xmlns:xlink="http://www.w3.org/1999/xlink" width="28" height="28">
	<defs>
		<clipPath id="clip_0">
			<rect x="-480" y="-1364" width="1440" height="1700" clip-rule="evenodd"/>
		</clipPath>
	</defs>
	<g clip-path="url(#clip_0)">
		<path fill="rgb(237,237,237)" stroke="none" d="M0 28L1.93102 21C0.675883 18.8276 0 16.4138 0 13.9034C0 6.27588 6.27588 0 13.9517 0C21.6275 0 28 6.27588 28 13.9034C28 21.531 21.6276 28 13.9517 28C11.5379 28 9.2207 27.2276 7.14481 26.069L0 28Z"/>
	</g>
	<defs>
		<clipPath id="clip_1">
			<rect x="-480" y="-1364" width="1440" height="1700" clip-rule="evenodd"/>
		</clipPath>
	</defs>
	<g clip-path="url(#clip_1)">
		<path fill="rgb(85,205,108)" stroke="none" transform="translate(2.41406 2.41357)" d="M5.11722 21.1448L5.55171 21.3862C7.33791 22.4965 9.4138 23.1724 11.5862 23.1724C17.9103 23.1724 23.1724 17.9103 23.1724 11.4896C23.1724 5.06893 17.9103 0 11.5379 0C5.16551 0 0 5.11722 0 11.4896C0 13.7103 0.627594 15.8827 1.7862 17.7172L2.07588 18.1517L0.965563 22.2069L5.11722 21.1448Z"/>
	</g>
	<defs>
		<clipPath id="clip_2">
			<rect x="-480" y="-1364" width="1440" height="1700" clip-rule="evenodd"/>
		</clipPath>
	</defs>
	<g clip-path="url(#clip_2)">
		<path fill="rgb(254,254,254)" stroke="none" transform="translate(7.09375 7.38623)" d="M3.14098 0.0482891L2.22377 0C1.93409 0 1.64446 0.0965781 1.45136 0.28968C1.01687 0.675883 0.29275 1.4 0.0996483 2.36556C-0.238266 3.81385 0.29275 5.55177 1.54794 7.28968C2.80312 9.02759 5.21692 11.8276 9.46516 13.0345C10.8169 13.4207 11.879 13.1793 12.7479 12.6483C13.4238 12.2138 13.8583 11.538 14.0031 10.8138L14.1479 10.1379C14.1962 9.94481 14.0996 9.70342 13.9065 9.6069L10.8652 8.2069C10.6721 8.11032 10.4307 8.15861 10.2859 8.35171L9.07895 9.89652C8.98237 9.9931 8.83756 10.0413 8.69275 9.9931C7.87205 9.70342 5.12034 8.54481 3.62377 5.64829C3.57548 5.50348 3.57548 5.35861 3.67205 5.26209L4.83066 3.95866C4.92724 3.81385 4.97548 3.62075 4.92724 3.47588L3.52724 0.337969C3.4789 0.193102 3.33409 0.0482891 3.14098 0.0482891"/>
	</g>

</svg>